inDegrees=no
num_controls=7
num_derivatives=13
num_iterations=104
num_multipliers=7
num_parameters=0
num_slacks=7
num_states=26
objective=0.477074
objective_accelerations=0.044001
objective_balance=0.003727
objective_effort=0.040657
objective_height=0.383018
objective_ligament=0.005672
solver_duration=1426.320387
status=Solve_Succeeded
success=true
DataType=double
version=3
OpenSimVersion=4.5
endheader
time	/jointset/ground_pelvis/pelvis_tilt/value	/jointset/ground_pelvis/pelvis_tx/value	/jointset/ground_pelvis/pelvis_ty/value	/jointset/hip_l/hip_flexion_l/value	/jointset/hip_l/hip_adduction_l/value	/jointset/hip_l/hip_rotation_l/value	/jointset/back/lumbar_extension/value	/jointset/patellofemoral_l/patellar_flexion_l/value	/jointset/knee_l/knee_flexion_l/value	/jointset/knee_l/knee_adduction_l/value	/jointset/knee_l/knee_rotation_l/value	/jointset/ankle_l/ankle_angle_l/value	/jointset/subtalar_l/subtalar_angle_l/value	/jointset/ground_pelvis/pelvis_tilt/speed	/jointset/ground_pelvis/pelvis_tx/speed	/jointset/ground_pelvis/pelvis_ty/speed	/jointset/hip_l/hip_flexion_l/speed	/jointset/hip_l/hip_adduction_l/speed	/jointset/hip_l/hip_rotation_l/speed	/jointset/back/lumbar_extension/speed	/jointset/patellofemoral_l/patellar_flexion_l/speed	/jointset/knee_l/knee_flexion_l/speed	/jointset/knee_l/knee_adduction_l/speed	/jointset/knee_l/knee_rotation_l/speed	/jointset/ankle_l/ankle_angle_l/speed	/jointset/subtalar_l/subtalar_angle_l/speed	/forceset/tau_hip_flexion_l	/forceset/tau_hip_adduction_l	/forceset/tau_hip_rotation_l	/forceset/tau_knee_flexion_l	/forceset/tau_ankle_angle_l	/forceset/tau_subtalar_angle_l	/forceset/tau_lumbar_extension	lambda_cid13_p0	lambda_cid13_p1	lambda_cid13_p2	lambda_cid13_p3	lambda_cid13_p4	lambda_cid13_p5	lambda_cid14_p0	/jointset/ground_pelvis/pelvis_tilt/accel	/jointset/ground_pelvis/pelvis_tx/accel	/jointset/ground_pelvis/pelvis_ty/accel	/jointset/hip_l/hip_flexion_l/accel	/jointset/hip_l/hip_adduction_l/accel	/jointset/hip_l/hip_rotation_l/accel	/jointset/back/lumbar_extension/accel	/jointset/patellofemoral_l/patellar_flexion_l/accel	/jointset/knee_l/knee_flexion_l/accel	/jointset/knee_l/knee_adduction_l/accel	/jointset/knee_l/knee_rotation_l/accel	/jointset/ankle_l/ankle_angle_l/accel	/jointset/subtalar_l/subtalar_angle_l/accel	gamma_cid13_p0	gamma_cid13_p1	gamma_cid13_p2	gamma_cid13_p3	gamma_cid13_p4	gamma_cid13_p5	gamma_cid14_p0
1	-0.1150067434865868	-0.06203502077173473	0.6830491511815291	1.331679959471205	-0.3281849964883112	0.07214310791508766	-0.959919634039345	1.388590045008082	1.388590045008312	-0.06961205481889958	-0.1745326775415935	0.2685237462182982	0.06006498604303822	0.1013775387478477	0.02488554052665091	0.06911488556126945	-0.2935018825681493	-0.007070795038378533	-0.06457196949992389	-0.001810753512617367	-0.1591776931696472	-0.1591776931696411	-0.001807872051276959	-3.047513113878138e-05	0.02419089201055271	0.002282544502160181	-0.3807833865981982	0.02335800347225008	0.0009842594569083327	-0.3708544301459182	0.0447413343635948	0.02089810602888989	0.4314832750315983	-37.31098687624382	-1.152572575144419	-1.858945658321937	13.55638464202771	-802.8225570362438	-62.90437399612055	-0.04170817464733419	0.8786572247737964	0.01432220679818453	1.571681328492145	-5.120258329539728	-0.1386211984042439	-1.696040935186245	0.1237129701414365	-5.05052168412898	-5.050521684128143	-0.3474445120674505	-0.01530056789840232	-1.165895984127203	-0.658410307159356	-1.159974417899973e-08	1.868761467410923e-08	6.64663936069646e-08	1.180657654764437e-08	-2.707333049518889e-08	1.235212509894173e-07	-1.670822680150884e-08
1.01	-0.1139493994962487	-0.06178541504310014	0.6838186322070611	1.328489899413629	-0.3282618485398506	0.07141176538535875	-0.9599310853347132	1.386746204717615	1.386746204718063	-0.0696455162827521	-0.1745327987495944	0.2687074552713393	0.06005598008175648	0.1100947219865899	0.02504017059748724	0.08476669480320163	-0.3444824169610621	-0.008289079505061154	-0.08168598800227753	-0.0004818960129429532	-0.2095747232616819	-0.2095747232616596	-0.004881157521875762	6.316498104864755e-06	0.01253676855134679	-0.004076073728635236	-0.3796765724461235	0.02354123708604531	0.0009098691305363558	-0.3706521717186761	0.04477023913402627	0.02100269964156019	0.4307930740264816	-37.25151942847538	-1.217216531615533	-1.838580294844545	13.42000090187268	-802.1912747747556	-62.95083611955144	-0.04174213566172642	0.8687661354271353	0.01672076967469323	1.559730862227913	-5.082797138847423	-0.1118602265476171	-1.717518226242858	0.1371135732050632	-5.031942685093095	-5.031942685091209	-0.2867922038415538	0.01320522551094832	-1.167292956905864	-0.6234515068287861	-1.570703074086564e-08	1.164476023412571e-08	9.838917373649903e-08	1.275470596406628e-08	-3.070593766922842e-08	1.445791485543525e-07	-2.361697434656521e-08
1.02	-0.1128047802211225	-0.06153412554126747	0.6847441913530493	1.324790864783195	-0.3283505690672049	0.07050959548690933	-0.9599293197685081	1.384398864323558	1.384398864324218	-0.06970961492916838	-0.1745325448018742	0.2687741986037705	0.05998361515300898	0.1188325957054422	0.0252222951662664	0.1003305096525101	-0.3952967971411861	-0.009444490201638059	-0.09873744324394862	0.0008326188197147079	-0.2598777138878128	-0.2598777138877794	-0.007935308563893129	4.4556014356326e-05	0.0007977478885969533	-0.01038924899099716	-0.3785697582940196	0.02372447069984452	0.0008354788041744898	-0.3704499132914324	0.04479914390445311	0.0211072932542336	0.4301028730213904	-37.2034980118635	-1.278754081517607	-1.819969372199659	13.33982827691551	-801.7089220809997	-62.97262037319706	-0.0417754008173549	0.882795320795831	0.01982110638675329	1.554082449967397	-5.087027486981959	-0.1260464443831022	-1.683528283049736	0.1208444367380086	-5.031713790948258	-5.031713790948413	-0.3436176263511646	-0.01501099049684197	-1.182875424835983	-0.6493217134726579	-1.993110452810583e-08	3.726937816762396e-09	1.271458950070811e-07	1.386326208242531e-08	-3.378924492535624e-08	1.623333197891052e-07	-3.006738544935741e-08
1.03	-0.111573310992523	-0.06128069728713269	0.6858247334283688	1.320585457320439	-0.3284505233944551	0.06943737839719551	-0.9599128662220129	1.38154950329912	1.381549503299598	-0.06980411994291179	-0.1745319610788545	0.2687233992772318	0.05984848286140863	0.1273996036437141	0.02548596381717345	0.1157415310933214	-0.445660916763685	-0.01053459276805858	-0.1156838745651257	0.002619423698302544	-0.3099246355938111	-0.3099246355938604	-0.01095384959259105	6.679156080306018e-05	-0.0109441633398943	-0.01661482247482533	-0.3779013417502093	0.02389884375987989	0.0007215879587871498	-0.3698066542392148	0.04512585292898393	0.02129421838635143	0.4301260960712495	-37.03545630257598	-1.409412041309656	-1.776232949366935	12.7970226787902	-801.1876345982784	-63.00527565310052	-0.04181475182677968	0.8344035512807758	0.03303396934683463	1.529148451389194	-4.992541386225099	-0.09874022415706094	-1.696913903613297	0.2317984962156547	-4.980695707850411	-4.980695707862735	-0.2792132245425789	0.01006729239995712	-1.167831990290998	-0.6058348089705041	-2.415637002172739e-08	-4.199812845268064e-09	1.558703095546125e-07	1.497345520794695e-08	-3.686694708028086e-08	1.800537795306928e-07	-3.651311964967753e-08
1.04	-0.1102580216803532	-0.06102395350150795	0.6870582930101466	1.315880121224194	-0.3285610283596458	0.06819635432487618	-0.9598737046301712	1.378201770188138	1.37820177018843	-0.06992845854362616	-0.1745313097073321	0.2685555842347211	0.0596517629063435	0.135596612419503	0.02588540146425431	0.1309340109441885	-0.4952825238398315	-0.01155461778990021	-0.1324988397647671	0.005374227888749674	-0.3595521311968016	-0.3595521311969341	-0.01390202595782827	5.808571463042719e-05	-0.02260539530579817	-0.02270678168395828	-0.3772329252063848	0.02407321681991517	0.0006076971134050216	-0.3691633951869965	0.0454525619535119	0.02148114351846785	0.4301493191211211	-36.8788845312053	-1.536984425529843	-1.734219080143447	12.30995860497063	-800.8151757027729	-63.01461138542656	-0.04185265880873621	0.8087954882992235	0.04697490562152001	1.510374131978548	-4.938524977711491	-0.112030935467328	-1.657235058742601	0.314444299109856	-4.947828570346678	-4.947828570346965	-0.3295446936590274	-0.02119926902072617	-1.166739572318501	-0.622598858533617	-3.020364861451402e-08	-1.437701319686415e-08	1.812730863631858e-07	2.018391578623896e-08	-4.452120090726013e-08	1.888272096159557e-07	-4.161162519698454e-08
1.05	-0.1088625058487194	-0.06076250954623852	0.6884427337344881	1.310681998976432	-0.3286813454153329	0.06678788244443459	-0.9598021021346523	1.374359621461648	1.374359621462203	-0.0700820198462002	-0.17453084215193	0.2682714863913801	0.05939482101384957	0.1434540769397437	0.0264287296360202	0.1459225541626124	-0.544245229740973	-0.01249265051440199	-0.1491740050820764	0.009114851882084685	-0.4088320215827234	-0.4088320215827809	-0.01680239908030483	3.612243005059357e-05	-0.03420812356223469	-0.02865546433517668	-0.376742382018999	0.02436127192920878	0.0004593977351711847	-0.3682779849014704	0.04565372027773274	0.02174438762890191	0.4304003166618651	-36.76147681273873	-1.699774274054711	-1.676390850610995	11.79451699963555	-800.5202172017214	-63.06238648987598	-0.04190627175523258	0.7663469606371036	0.06181793835147714	1.488346910096382	-4.860643879067494	-0.08228958232133576	-1.669465144167031	0.4291585494818875	-4.91122101025506	-4.911221010243608	-0.2691317753792584	0.007456107734750496	-1.156133884569629	-0.5771033917894528	-3.630786511664956e-08	-2.462454010125916e-08	2.065720619924167e-07	2.552250972243002e-08	-5.231847197399108e-08	1.973210450244584e-07	-4.66680298488849e-08
